<?xml version="1.0" standalone="no"?>
<!DOCTYPE svg PUBLIC "-//W3C//DTD SVG 20010904//EN"
 "http://www.w3.org/TR/2001/REC-SVG-20010904/DTD/svg10.dtd">
<svg version="1.0" xmlns="http://www.w3.org/2000/svg"
 width="700.000000pt" height="700.000000pt" viewBox="0 0 700.000000 700.000000"
 preserveAspectRatio="xMidYMid meet">
<metadata>
Created by potrace 1.11, written by Peter Selinger 2001-2013
</metadata>
<g transform="translate(0.000000,700.000000) scale(0.100000,-0.100000)"
fill="#000000" stroke="none">
<path d="M1559 6996 c-2 -2 -34 -6 -71 -10 -36 -3 -72 -8 -80 -11 -7 -2 -29
-6 -48 -9 -245 -38 -587 -208 -785 -390 -87 -80 -101 -94 -135 -132 -182 -199
-315 -448 -384 -714 -53 -205 -51 -112 -51 -2230 0 -1086 3 -1995 8 -2020 4
-25 10 -61 13 -80 29 -184 113 -404 222 -584 94 -156 181 -260 347 -411 39
-35 180 -136 225 -161 19 -10 37 -22 40 -25 8 -11 201 -96 275 -123 39 -13
104 -33 145 -44 184 -48 120 -47 2210 -47 1081 0 1990 3 2020 8 96 13 123 18
217 42 596 153 1067 623 1218 1215 52 202 50 114 50 2235 0 1543 -3 1994 -13
2045 -6 36 -14 76 -16 90 -2 14 -12 54 -21 90 -9 36 -18 70 -19 75 -1 6 -4 15
-7 20 -4 6 -14 35 -24 65 -24 75 -89 211 -139 290 -48 78 -141 206 -171 236
-12 12 -30 32 -41 45 -25 30 -127 125 -177 164 -21 17 -50 40 -65 51 -125 99
-385 222 -572 269 -200 51 -67 48 -2191 52 -1087 2 -1978 1 -1980 -1z m3826
-580 c291 -18 570 -156 760 -377 68 -80 65 -76 116 -160 55 -92 100 -202 131
-319 l23 -85 2 -1940 c2 -1863 1 -1944 -17 -2040 -53 -285 -190 -508 -425
-693 -141 -110 -352 -195 -542 -216 -28 -3 -903 -6 -1945 -6 -1688 -1 -1903 1
-1983 15 -284 50 -533 204 -710 440 -94 126 -180 336 -204 502 -6 43 -10 775
-10 1968 1 1574 3 1914 14 1980 73 420 336 729 750 881 68 25 182 45 290 51
61 3 111 6 112 7 6 4 3559 -3 3638 -8z"/>
</g>
</svg>
